<?xml version="1.0" encoding="utf-8"?>
<!-- Generator: Adobe Illustrator 16.0.0, SVG Export Plug-In . SVG Version: 6.00 Build 0)  -->
<!DOCTYPE svg PUBLIC "-//W3C//DTD SVG 1.1//EN" "http://www.w3.org/Graphics/SVG/1.1/DTD/svg11.dtd">
<svg version="1.1" id="Capa_1" xmlns="http://www.w3.org/2000/svg" xmlns:xlink="http://www.w3.org/1999/xlink" x="0px" y="0px"
	 width="595.28px" height="841.89px" viewBox="0 0 595.28 841.89" enable-background="new 0 0 595.28 841.89" xml:space="preserve">
<g>
	<g>
		<path fill="#1A3041" d="M79.508,433.436v-45.327h13.275v45.327H79.508z"/>
		<path fill="#1A3041" d="M126.553,433.436l-13.962-21.94v21.94H99.797v-45.327h12.519l13.963,22.078v-22.078h12.792v45.327H126.553
			z"/>
		<path fill="#1A3041" d="M172.776,433.436h-10.799l-16.509-45.327h13.481l8.461,23.248l8.458-23.248h13.413L172.776,433.436z"/>
		<path fill="#1A3041" d="M192.035,433.436v-45.327h35.974v11.35h-24.005v5.57h22.698v11.418h-22.698v5.571h24.005v11.417H192.035z"
			/>
		<path fill="#1A3041" d="M250.773,434.881c-2.982,0-5.927-0.367-8.839-1.102c-2.912-0.732-5.697-1.74-8.356-3.025
			c-0.046,0-0.115-0.022-0.207-0.068c-0.092-0.045-0.207-0.092-0.343-0.139c-0.23-0.137-0.401-0.286-0.517-0.446
			c-0.115-0.161-0.171-0.286-0.171-0.378c0-0.045,0.251-0.539,0.756-1.479c0.505-0.94,1.101-2.005,1.788-3.199
			c0.643-1.054,1.239-2.074,1.79-3.06c0.549-0.985,1.008-1.776,1.375-2.374c0.505,0.23,0.883,0.402,1.135,0.516
			c0.252,0.115,0.492,0.242,0.723,0.38c2.018,1.007,4.034,1.788,6.053,2.338c2.017,0.551,4.127,0.826,6.328,0.826
			c0.321,0,0.63,0,0.929,0c0.297,0,0.606-0.023,0.928-0.07c0.689,0,1.308-0.09,1.858-0.274c0.55-0.229,1.019-0.551,1.41-0.963
			c0.389-0.413,0.585-1.032,0.585-1.856c0-0.597-0.231-1.067-0.689-1.411c-0.458-0.344-0.94-0.63-1.445-0.86
			c-0.32-0.137-0.618-0.25-0.894-0.343c-0.78-0.32-1.571-0.562-2.372-0.723c-0.803-0.16-1.617-0.332-2.441-0.516
			c-1.101-0.229-2.18-0.47-3.234-0.722c-1.055-0.252-2.087-0.517-3.095-0.791c-1.056-0.32-2.041-0.676-2.958-1.066
			c-0.917-0.389-1.788-0.836-2.613-1.341c-1.697-1.054-3.05-2.441-4.058-4.162c-1.01-1.72-1.513-4-1.513-6.843
			c0-2.018,0.435-3.967,1.306-5.848c0.871-1.833,1.983-3.336,3.337-4.505c1.352-1.168,2.854-2.097,4.505-2.785
			c1.651-0.688,3.369-1.158,5.159-1.41c1.789-0.251,3.577-0.378,5.364-0.378c2.934,0,5.859,0.367,8.77,1.1
			c2.912,0.735,5.767,1.973,8.564,3.714c-1.056,1.789-2.042,3.497-2.959,5.125c-0.917,1.627-1.903,3.335-2.958,5.124
			c-2.338-1.192-4.528-2.12-6.568-2.787c-2.041-0.665-4.229-0.997-6.57-0.997c-0.458,0-0.974,0.012-1.546,0.034
			c-0.574,0.023-1.1,0.128-1.582,0.31c-0.482,0.184-0.894,0.459-1.239,0.826c-0.344,0.368-0.516,0.894-0.516,1.582
			c0,0.413,0.114,0.803,0.345,1.169c0.182,0.368,0.584,0.678,1.203,0.929c0.619,0.252,1.456,0.516,2.511,0.791
			c1.009,0.274,2.121,0.539,3.336,0.791c1.215,0.253,2.464,0.562,3.749,0.929c1.283,0.321,2.59,0.701,3.921,1.134
			c1.328,0.437,2.579,0.988,3.747,1.65c1.169,0.666,2.225,1.445,3.165,2.34c0.939,0.894,1.686,1.96,2.235,3.198
			c0.412,0.917,0.698,1.903,0.86,2.957c0.16,1.056,0.24,2.087,0.24,3.096c0,3.026-0.607,5.502-1.822,7.429
			c-1.215,1.926-2.797,3.462-4.747,4.609c-1.949,1.145-4.126,1.936-6.534,2.372C255.555,434.662,253.158,434.881,250.773,434.881z"
			/>
		<path fill="#1A3041" d="M310.752,399.871H299.06v33.565h-12.933v-33.565h-11.692l-1.1-1.101v-10.661h38.517v10.661
			L310.752,399.871z"/>
	</g>
	<g>
		<path fill="#92221D" d="M131.869,438.941h11.449v15.463h14.695v-15.463h11.449v41.311h-11.449v-15.697h-14.695v15.697h-11.449
			V438.941z"/>
		<path fill="#92221D" d="M177.016,438.941h11.508v41.311h-11.508V438.941z"/>
		<path fill="#92221D" d="M196.078,438.941h15.935c3.698,0,6.994,0.502,9.884,1.505c2.892,1.004,5.332,2.411,7.319,4.22
			c1.986,1.811,3.5,3.964,4.545,6.463c1.042,2.498,1.563,5.242,1.563,8.232v0.119c0,2.989-0.531,5.754-1.593,8.291
			c-1.062,2.538-2.596,4.732-4.604,6.58c-2.007,1.85-4.476,3.297-7.406,4.338c-2.932,1.043-6.247,1.563-9.945,1.563h-15.698V438.941
			z M212.207,470.103c3.435,0,6.199-0.905,8.292-2.715c2.094-1.809,3.139-4.387,3.139-7.731v-0.117c0-3.305-1.045-5.873-3.139-7.703
			c-2.093-1.828-4.857-2.743-8.292-2.743h-4.68v21.01H212.207z"/>
		<path fill="#92221D" d="M255.508,438.646h11.035l17.587,41.605h-12.275l-3.011-7.376H252.91l-2.95,7.376h-12.039L255.508,438.646z
			 M265.541,464.023l-4.603-11.745l-4.662,11.745H265.541z"/>
		<path fill="#92221D" d="M288.144,438.941h11.45v31.279H319.6v10.031h-31.456V438.941z"/>
		<path fill="#92221D" d="M345.567,481.08c-3.226,0-6.208-0.521-8.942-1.564c-2.733-1.042-5.104-2.508-7.109-4.397
			c-2.008-1.888-3.582-4.14-4.723-6.756c-1.143-2.616-1.71-5.498-1.71-8.647v-0.117c0-2.99,0.558-5.793,1.673-8.41
			c1.115-2.615,2.651-4.898,4.609-6.846c1.956-1.947,4.301-3.472,7.031-4.574c2.729-1.102,5.688-1.652,8.875-1.652
			c3.66,0,6.816,0.531,9.473,1.595c2.655,1.061,5.086,2.536,7.289,4.427l-6.729,8.084c-1.495-1.258-3.02-2.223-4.574-2.893
			c-1.555-0.668-3.354-1.004-5.398-1.004c-1.496,0-2.884,0.297-4.162,0.886c-1.279,0.591-2.391,1.399-3.334,2.421
			c-0.945,1.023-1.691,2.223-2.243,3.601c-0.551,1.376-0.825,2.853-0.825,4.425v0.118c0,1.651,0.275,3.187,0.829,4.604
			c0.552,1.416,1.331,2.625,2.338,3.628c1.008,1.004,2.19,1.79,3.554,2.361c1.36,0.571,2.871,0.856,4.528,0.856
			c2.685,0,4.896-0.57,6.634-1.712v-5.016h-8.146v-8.381h19.003v18.589c-2.204,1.812-4.799,3.326-7.79,4.545
			S349.344,481.08,345.567,481.08z"/>
		<path fill="#92221D" d="M390.656,481.08c-3.188,0-6.139-0.562-8.853-1.684c-2.717-1.119-5.056-2.645-7.023-4.572
			s-3.512-4.19-4.632-6.787c-1.122-2.597-1.683-5.37-1.683-8.322v-0.117c0-2.951,0.561-5.732,1.683-8.352
			c1.12-2.616,2.686-4.898,4.689-6.846c2.009-1.947,4.369-3.481,7.084-4.604c2.714-1.12,5.665-1.682,8.853-1.682
			c3.186,0,6.137,0.562,8.852,1.682c2.715,1.122,5.055,2.646,7.023,4.574c1.967,1.93,3.511,4.19,4.634,6.787
			c1.12,2.597,1.68,5.37,1.68,8.322v0.117c0,2.951-0.56,5.734-1.68,8.352c-1.123,2.616-2.686,4.896-4.692,6.846
			c-2.007,1.947-4.368,3.482-7.083,4.602C396.793,480.519,393.842,481.08,390.656,481.08z M390.744,470.752
			c1.578,0,3.018-0.296,4.32-0.887c1.303-0.589,2.406-1.386,3.314-2.39c0.906-1.003,1.616-2.173,2.129-3.511
			c0.514-1.338,0.771-2.754,0.771-4.25v-0.117c0-1.496-0.258-2.912-0.771-4.248c-0.513-1.338-1.241-2.519-2.189-3.542
			c-0.945-1.023-2.07-1.839-3.371-2.45c-1.304-0.609-2.743-0.914-4.321-0.914c-1.577,0-3.008,0.295-4.29,0.885
			c-1.282,0.592-2.388,1.388-3.314,2.391c-0.929,1.004-1.639,2.175-2.133,3.513c-0.492,1.337-0.736,2.753-0.736,4.249v0.117
			c0,1.496,0.256,2.912,0.768,4.25c0.514,1.338,1.231,2.518,2.16,3.54c0.928,1.022,2.041,1.841,3.345,2.449
			C387.727,470.447,389.166,470.752,390.744,470.752z"/>
	</g>
	<g>
		<path fill="#6BA752" d="M515.674,417.168c-1.004-1.944-3.396-2.707-5.34-1.701c-39.103,20.207-63.638,27.71-72.922,22.305
			c-5.325-3.1-5.644-11.221-5.982-19.818c-0.416-10.604-0.936-23.801-13.867-26.864c-9.202-2.179-17.569,0.38-24.771,4.934
			c1.993-2.777,3.712-5.182,4.937-7.019c1.683-2.524,3.986-5.982,1.025-8.557c-2.885-2.505-5.98,0.11-8.029,1.84
			c-1.853,1.566-4.578,4.071-8.333,7.655c-28.063,26.786-51.644,33.238-56.961,29.326c-0.087-0.064-0.142-0.104-0.169-0.415
			c-0.32-3.638,5.969-12.715,11.98-19.039c1.452-1.527,1.455-3.922,0.008-5.453s-3.839-1.661-5.444-0.298
			c-28.699,24.382-50.988,24.963-51.405,24.97c-2.183,0.007-3.95,1.778-3.95,3.963c0,2.188,1.774,3.962,3.963,3.962
			c0.804,0,16.114-0.188,37.923-13.367c-0.743,2.087-1.132,4.117-0.97,5.958c0.224,2.537,1.388,4.647,3.367,6.104
			c8.502,6.256,29.891,0.984,55.364-19.609c-4.053,6.092-7.681,12.154-9.384,16.801c-1.324,3.61-2.468,6.729,0.854,8.405
			c3.293,1.657,5.08-1.055,6.976-3.927c5.403-8.188,21.845-33.107,41.192-28.522c6.379,1.511,7.299,7.373,7.774,19.463
			c0.388,9.874,0.829,21.065,9.913,26.356c3.096,1.802,6.989,2.717,11.779,2.717c14.207,0,36.291-8.047,68.77-24.83
			C515.916,421.503,516.678,419.112,515.674,417.168z"/>
		<path fill="#6BA752" d="M341.32,393.653c1.129,0,2.25-0.479,3.033-1.411c0.324-0.385,7.998-9.612,14.046-26.113
			c0.753-2.054-0.302-4.331-2.357-5.084c-2.053-0.751-4.331,0.303-5.085,2.358c-5.517,15.054-12.563,23.61-12.672,23.741
			c-1.404,1.675-1.188,4.171,0.484,5.58C339.514,393.348,340.419,393.653,341.32,393.653z"/>
	</g>
</g>
</svg>
