<?xml version="1.0" encoding="utf-8"?>
<!-- Generator: Adobe Illustrator 16.0.0, SVG Export Plug-In . SVG Version: 6.00 Build 0)  -->
<!DOCTYPE svg PUBLIC "-//W3C//DTD SVG 1.1//EN" "http://www.w3.org/Graphics/SVG/1.1/DTD/svg11.dtd">
<svg version="1.1" id="Capa_1" xmlns="http://www.w3.org/2000/svg" xmlns:xlink="http://www.w3.org/1999/xlink" x="0px" y="0px"
	 width="63.943px" height="61.09px" viewBox="0 0 63.943 61.09" enable-background="new 0 0 63.943 61.09" xml:space="preserve">
<g>
	<path fill="#1A3041" d="M10.527,3.163c-0.09-1.406,1.081-2.776,2.52-2.767c10.874-0.016,21.743,0,32.617-0.009
		c1.403-0.153,2.725,1.082,2.774,2.484c0.017,2.029-0.007,4.061,0.005,6.095c1.873,0.021,3.742-0.023,5.614,0.021
		c1.376,0.025,2.523,1.269,2.523,2.63c0.026,15.573,0,31.145,0.021,46.723c0.15,1.555-1.185,3.066-2.776,2.984
		c-10.699,0.029-21.405,0.004-32.109,0.012c-1.296,0.086-2.665-0.699-2.953-2.018c-0.168-1.141-0.056-2.299-0.072-3.438
		c-1.893-0.02-3.771,0.016-5.658-0.014c-1.347-0.006-2.525-1.266-2.499-2.6C10.513,36.562,10.533,19.865,10.527,3.163z
		 M15.908,50.503c0.918,0,1.847,0,2.775,0c0.008-8.49,0-16.996,0.008-25.482c-0.032-0.643,0.192-1.293,0.631-1.761
		c4.328-4.427,8.819-8.683,13.16-13.096c0.616-0.667,1.438-1.236,2.389-1.19c2.726-0.016,5.468,0,8.199-0.009
		c0-1.064,0-2.137,0-3.192c-9.057,0-18.112,0-27.162,0C15.908,20.676,15.908,35.589,15.908,50.503z M37.587,14.345
		c-0.012,3.579,0.04,7.164-0.019,10.738c0.019,1.435-1.226,2.731-2.661,2.708c-3.613,0.015-7.229,0-10.848,0.007
		c0,9.36,0,18.721,0,28.083c9.023,0,18.045,0,27.08,0c0-13.85,0-27.692,0-41.535C46.623,14.345,42.104,14.345,37.587,14.345z
		 M27.884,22.42c1.409,0,2.833,0,4.248,0c0-1.417,0-2.837,0-4.252C30.718,19.577,29.293,21.003,27.884,22.42z"/>
</g>
</svg>
