<?xml version="1.0" encoding="utf-8"?>
<!-- Generator: Adobe Illustrator 16.0.0, SVG Export Plug-In . SVG Version: 6.00 Build 0)  -->
<!DOCTYPE svg PUBLIC "-//W3C//DTD SVG 1.1//EN" "http://www.w3.org/Graphics/SVG/1.1/DTD/svg11.dtd">
<svg version="1.1" id="Capa_1" xmlns="http://www.w3.org/2000/svg" xmlns:xlink="http://www.w3.org/1999/xlink" x="0px" y="0px"
	 width="63.943px" height="61.09px" viewBox="0 0 63.943 61.09" enable-background="new 0 0 63.943 61.09" xml:space="preserve">
<g>
	<defs>
		<path id="SVGID_1_" d="M15.291,56.111l1.187,0.789v-3.16L15.291,56.111z M47.203,56.9l1.391-0.789l-1.391-2.371V56.9z
			 M30.355,61.066h1.589V47.593h-1.589V61.066z M31.944,61.066h1.586V47.593h-1.586V61.066z M16.478,53.74v3.16l1.596,0.803
			l6.736-11.693l-2.776-1.588L16.478,53.74z M39.075,46.009l6.739,11.693l1.389-0.803v-3.16l-5.352-9.318L39.075,46.009z
			 M16.478,41.255l1.381-0.797l-1.381-2.377V41.255z M45.814,40.458l1.389,0.797v-3.174L45.814,40.458z M4.588,44.421l1.791,2.777
			l10.098-5.943v-3.174l-0.19-0.393L4.588,44.421z M47.203,38.082v3.174l10.303,5.943l1.59-2.777l-11.486-6.732L47.203,38.082z
			 M1.42,32.134h13.479v-3.17H1.42V32.134z M48.989,32.134h13.472v-3.17H48.989V32.134z M16.478,22.816l1.381-2.38l-1.381-0.594
			V22.816z M45.814,20.437l1.389,2.38v-2.974L45.814,20.437z M18.862,30.549c0,7.14,5.948,12.886,13.083,12.886v-3.17
			c-5.361,0-9.717-4.369-9.717-9.716c0-5.549,4.355-9.904,9.717-9.904v-3.179C24.81,17.466,18.862,23.216,18.862,30.549
			 M31.944,20.645c5.354,0,9.716,4.355,9.716,9.904c0,5.347-4.361,9.716-9.716,9.716v3.17c7.131,0,12.878-5.746,12.878-12.886
			c0-7.333-5.747-13.083-12.878-13.083V20.645z M4.588,16.682l11.699,6.732l0.19-0.598v-2.974L6.379,13.896L4.588,16.682z
			 M47.203,19.843v2.974l0.406,0.598l11.486-6.732l-1.59-2.786L47.203,19.843z M15.291,4.98l1.187,2.179V4.178L15.291,4.98z
			 M47.203,7.159l1.391-2.179l-1.391-0.802V7.159z M16.478,4.178v2.981l5.556,9.317l2.776-1.593l-6.736-11.69L16.478,4.178z
			 M39.075,14.883l2.776,1.593l5.352-9.317V4.178l-1.389-0.985L39.075,14.883z M30.355,13.305h1.589V0.024h-1.589V13.305z
			 M31.944,13.305h1.586V0.024h-1.586V13.305z"/>
	</defs>
	<use xlink:href="#SVGID_1_"  overflow="visible" fill="#1A3041"/>
	<clipPath id="SVGID_2_">
		<use xlink:href="#SVGID_1_"  overflow="visible"/>
	</clipPath>
	<rect x="1.42" y="0.024" clip-path="url(#SVGID_2_)" fill="#1A3041" width="61.041" height="61.042"/>
</g>
</svg>
