<?xml version="1.0" encoding="utf-8"?>
<!-- Generator: Adobe Illustrator 16.0.0, SVG Export Plug-In . SVG Version: 6.00 Build 0)  -->
<!DOCTYPE svg PUBLIC "-//W3C//DTD SVG 1.1//EN" "http://www.w3.org/Graphics/SVG/1.1/DTD/svg11.dtd">
<svg version="1.1" id="Capa_1" xmlns="http://www.w3.org/2000/svg" xmlns:xlink="http://www.w3.org/1999/xlink" x="0px" y="0px"
	 width="63.943px" height="61.09px" viewBox="0 0 63.943 61.09" enable-background="new 0 0 63.943 61.09" xml:space="preserve">
<g>
	<path fill="#1A3041" d="M27.156,36.253c0-2.236,1.53-3.773,3.672-3.773c2.232,0,3.693,1.537,3.729,3.773
		c0,2.166-1.454,3.787-3.729,3.787C28.654,40.034,27.156,38.434,27.156,36.253L27.156,36.253z M28.247,30.495l-0.044-1.083
		c-0.156-2.102,0.574-4.269,2.422-6.436c1.315-1.643,2.41-2.988,2.41-4.369c0-1.429-0.941-2.439-3.032-2.479
		c-1.349,0-3.043,0.494-4.083,1.251l-1.418-4.545c1.542-0.865,3.963-1.68,6.915-1.68c5.468,0,8.013,3.036,8.013,6.479
		c0,3.134-2.029,5.191-3.6,6.951c-1.486,1.693-2.141,3.286-2.086,5.154v0.757H28.247z M46.278,61.09l-1.847-3.178
		c-1.825-3.181-3.476-6.093-4.668-8.252H5.074C2.275,49.661,0,47.407,0,44.592V5.759c0-2.792,2.275-5.075,5.074-5.075h53.769
		c2.81,0,5.101,2.283,5.101,5.09v38.818c0,2.814-2.291,5.068-5.101,5.068h-6.111c-2.155,3.839-4.788,8.448-4.788,8.448L46.278,61.09
		z M5.074,4.603L5.074,4.603c-0.668,0-1.185,0.523-1.185,1.171v38.818c0,0.64,0.517,1.171,1.185,1.171h36.973l0.56,1.004
		c1.084,1.912,2.473,4.344,3.636,6.405c1.083-1.876,2.465-4.352,3.657-6.435l0.563-0.975h8.38c0.64,0,1.199-0.531,1.199-1.171V5.759
		c0-0.633-0.56-1.156-1.199-1.156H5.074z"/>
</g>
</svg>
