<?xml version="1.0" encoding="utf-8"?>
<!-- Generator: Adobe Illustrator 16.0.0, SVG Export Plug-In . SVG Version: 6.00 Build 0)  -->
<!DOCTYPE svg PUBLIC "-//W3C//DTD SVG 1.1//EN" "http://www.w3.org/Graphics/SVG/1.1/DTD/svg11.dtd">
<svg version="1.1" id="Capa_1" xmlns="http://www.w3.org/2000/svg" xmlns:xlink="http://www.w3.org/1999/xlink" x="0px" y="0px"
	 width="595.28px" height="841.89px" viewBox="0 0 595.28 841.89" enable-background="new 0 0 595.28 841.89" xml:space="preserve">
<g>
	<g>
		<defs>
			<circle id="SVGID_1_" cx="295.891" cy="423.437" r="16.771"/>
		</defs>
		<clipPath id="SVGID_2_">
			<use xlink:href="#SVGID_1_"  overflow="visible"/>
		</clipPath>
		<g clip-path="url(#SVGID_2_)">
			<path fill="#649D67" d="M292.699,423.547L292.699,423.547l3.373-3.374l0.001,0.001l13.866-13.866h-28.807
				c-1.09,0-1.974,0.884-1.974,1.974v28.807L292.699,423.547z"/>
			<polygon fill="#627AB5" points="282.427,440.566 309.719,440.566 296.073,426.92 			"/>
			<polygon fill="#C1C1C0" points="313.614,437.717 313.614,409.379 299.445,423.547 			"/>
			
				<rect x="292" y="421.86" transform="matrix(0.707 -0.7072 0.7072 0.707 -212.0894 331.7953)" fill="#F0F0EF" width="4.771" height="0"/>
			<path fill="#F0F0EF" d="M296.073,426.92l13.646,13.646h1.921c1.091,0,1.975-0.885,1.975-1.975v-0.875l-14.169-14.17
				L296.073,426.92z"/>
			<path fill="#EAD462" d="M292.699,423.547l-13.54,13.541v1.504c0,1.09,0.884,1.975,1.974,1.975h1.294l13.646-13.646l3.372-3.373
				l14.169-14.168v-1.098c0-1.09-0.884-1.974-1.975-1.974h-1.7l-13.866,13.866L292.699,423.547z"/>
			<path fill="#EFEEEE" d="M284.516,418.931c0.305,0.311,0.672,0.555,1.101,0.73c0.43,0.177,0.906,0.265,1.433,0.265
				c0.294,0,0.575-0.028,0.845-0.082c0.27-0.055,0.521-0.13,0.755-0.226c0.233-0.097,0.451-0.208,0.654-0.337
				c0.201-0.127,0.385-0.263,0.552-0.402v-2.826h-2.864v1.028h1.721v1.266c-0.204,0.155-0.445,0.278-0.724,0.371
				c-0.277,0.095-0.577,0.142-0.896,0.142c-0.346,0-0.657-0.062-0.935-0.184c-0.278-0.122-0.519-0.289-0.719-0.5
				c-0.201-0.213-0.357-0.467-0.466-0.762s-0.163-0.615-0.163-0.963v-0.02c0-0.32,0.058-0.626,0.169-0.914
				c0.111-0.289,0.266-0.541,0.461-0.757c0.195-0.214,0.427-0.386,0.692-0.515c0.266-0.128,0.552-0.191,0.859-0.191
				c0.212,0,0.405,0.018,0.582,0.053c0.176,0.035,0.337,0.084,0.484,0.143c0.148,0.062,0.289,0.137,0.423,0.227
				c0.136,0.09,0.266,0.189,0.395,0.299l0.749-0.895c-0.172-0.147-0.351-0.277-0.532-0.39c-0.184-0.112-0.376-0.206-0.583-0.283
				c-0.204-0.077-0.427-0.136-0.667-0.178c-0.24-0.041-0.508-0.063-0.802-0.063c-0.507,0-0.973,0.094-1.398,0.278
				c-0.426,0.187-0.794,0.438-1.104,0.756c-0.309,0.316-0.549,0.686-0.721,1.108c-0.171,0.423-0.255,0.869-0.255,1.336v0.02
				c0,0.494,0.083,0.95,0.249,1.369C283.976,418.255,284.212,418.621,284.516,418.931z"/>
		</g>
	</g>
	<g>
		<circle fill="#821A1E" cx="307.551" cy="409.085" r="3.251"/>
		<path fill="#B0443F" d="M307.551,401.252c-8.789-0.166-7.548,8.109-7.548,8.109c0.122,0.813,0.514,2.083,0.87,2.821l6.029,12.507
			c0.357,0.739,0.945,0.742,1.307,0.005l6.148-12.516c0.362-0.736,0.752-2.006,0.865-2.818
			C315.223,409.36,316.339,401.419,307.551,401.252z M307.553,413.643c-2.66,0-4.814-2.122-4.814-4.739
			c0-2.616,2.154-4.738,4.814-4.738c2.659,0,4.815,2.122,4.815,4.738C312.368,411.521,310.212,413.643,307.553,413.643z"/>
		<path fill="#B0443F" d="M307.553,404.165c-2.66,0-4.814,2.122-4.814,4.738c0,2.617,2.154,4.739,4.814,4.739
			c2.659,0,4.815-2.122,4.815-4.739C312.368,406.287,310.212,404.165,307.553,404.165z M307.551,412.337
			c-1.796,0-3.252-1.456-3.252-3.252s1.456-3.251,3.252-3.251c1.795,0,3.252,1.455,3.252,3.251S309.346,412.337,307.551,412.337z"/>
	</g>
</g>
</svg>
