<?xml version="1.0" encoding="utf-8"?>
<!-- Generator: Adobe Illustrator 16.0.0, SVG Export Plug-In . SVG Version: 6.00 Build 0)  -->
<!DOCTYPE svg PUBLIC "-//W3C//DTD SVG 1.1//EN" "http://www.w3.org/Graphics/SVG/1.1/DTD/svg11.dtd">
<svg version="1.1" id="Capa_1" xmlns="http://www.w3.org/2000/svg" xmlns:xlink="http://www.w3.org/1999/xlink" x="0px" y="0px"
	 width="100px" height="34.5px" viewBox="0 0 100 34.5" enable-background="new 0 0 100 34.5" xml:space="preserve">
<g>
	<g>
		<path fill="#1A3041" d="M2,19.79V9.796h2.926v9.993H2z"/>
		<path fill="#1A3041" d="M12.374,19.79l-3.079-4.836v4.836H6.474V9.796h2.761l3.079,4.869V9.796h2.822v9.993H12.374z"/>
		<path fill="#1A3041" d="M22.566,19.79h-2.382l-3.642-9.993h2.974l1.867,5.127l1.864-5.127h2.957L22.566,19.79z"/>
		<path fill="#1A3041" d="M26.812,19.79V9.796h7.933v2.501H29.45v1.23h5.007v2.515H29.45v1.23h5.295v2.517H26.812L26.812,19.79z"/>
		<path fill="#1A3041" d="M39.765,20.108c-0.66,0-1.308-0.08-1.949-0.244c-0.644-0.162-1.256-0.383-1.843-0.666
			c-0.011,0-0.024-0.006-0.046-0.015c-0.021-0.01-0.047-0.021-0.075-0.033c-0.052-0.03-0.088-0.062-0.114-0.096
			c-0.026-0.037-0.039-0.063-0.039-0.084c0-0.01,0.056-0.118,0.168-0.325c0.112-0.209,0.241-0.444,0.395-0.707
			c0.14-0.232,0.273-0.456,0.394-0.673c0.121-0.218,0.225-0.392,0.304-0.525c0.11,0.052,0.197,0.09,0.25,0.116
			c0.056,0.024,0.109,0.052,0.159,0.083c0.446,0.224,0.89,0.394,1.335,0.517c0.445,0.12,0.911,0.181,1.396,0.181
			c0.07,0,0.14,0,0.204,0c0.065,0,0.134-0.004,0.205-0.015c0.153,0,0.288-0.019,0.412-0.06c0.12-0.049,0.223-0.121,0.31-0.211
			c0.086-0.092,0.129-0.228,0.129-0.411c0-0.129-0.051-0.235-0.153-0.311c-0.101-0.078-0.206-0.138-0.318-0.189
			c-0.071-0.03-0.135-0.056-0.196-0.075c-0.172-0.071-0.346-0.125-0.523-0.162c-0.178-0.034-0.357-0.073-0.538-0.112
			c-0.244-0.052-0.481-0.104-0.713-0.159c-0.233-0.057-0.461-0.114-0.686-0.174c-0.232-0.071-0.448-0.149-0.65-0.235
			c-0.203-0.086-0.396-0.185-0.577-0.297c-0.375-0.232-0.672-0.538-0.896-0.917c-0.222-0.379-0.332-0.883-0.332-1.507
			c0-0.446,0.095-0.874,0.289-1.29c0.19-0.404,0.435-0.736,0.734-0.993c0.3-0.258,0.631-0.465,0.993-0.616
			c0.366-0.15,0.745-0.254,1.139-0.31c0.394-0.056,0.789-0.084,1.183-0.084c0.646,0,1.292,0.08,1.933,0.244
			c0.642,0.162,1.271,0.435,1.888,0.818c-0.231,0.396-0.449,0.771-0.652,1.131c-0.203,0.359-0.419,0.734-0.652,1.13
			c-0.514-0.262-0.998-0.469-1.449-0.615c-0.449-0.147-0.931-0.22-1.447-0.22c-0.102,0-0.216,0.004-0.341,0.008
			c-0.127,0.004-0.243,0.026-0.349,0.069c-0.108,0.039-0.198,0.099-0.276,0.182c-0.073,0.081-0.112,0.198-0.112,0.348
			c0,0.091,0.026,0.177,0.076,0.259c0.04,0.081,0.129,0.149,0.264,0.205c0.138,0.054,0.323,0.114,0.556,0.174
			c0.222,0.061,0.465,0.119,0.733,0.175c0.27,0.054,0.546,0.123,0.827,0.205c0.283,0.071,0.571,0.155,0.864,0.25
			c0.293,0.097,0.568,0.218,0.827,0.364c0.258,0.147,0.49,0.319,0.697,0.515c0.206,0.199,0.372,0.433,0.492,0.706
			c0.093,0.203,0.153,0.42,0.19,0.653c0.037,0.233,0.054,0.459,0.054,0.683c0,0.668-0.134,1.212-0.403,1.639
			c-0.268,0.424-0.616,0.762-1.046,1.016c-0.429,0.251-0.912,0.427-1.441,0.523C40.82,20.061,40.29,20.108,39.765,20.108z"/>
		<path fill="#1A3041" d="M52.99,12.389h-2.58v7.401H47.56v-7.401h-2.578l-0.243-0.243V9.796h8.491v2.349L52.99,12.389z"/>
	</g>
	<g>
		<path fill="#92221D" d="M13.545,21.004h2.523v3.409h3.241v-3.409h2.526v9.109H19.31v-3.46h-3.241v3.46h-2.523V21.004
			L13.545,21.004z"/>
		<path fill="#92221D" d="M23.5,21.004h2.539v9.109H23.5V21.004z"/>
		<path fill="#92221D" d="M27.704,21.004h3.515c0.816,0,1.542,0.11,2.179,0.332c0.637,0.222,1.175,0.532,1.612,0.931
			c0.439,0.4,0.773,0.875,1.004,1.426c0.228,0.551,0.344,1.156,0.344,1.815v0.026c0,0.659-0.116,1.269-0.351,1.828
			c-0.235,0.56-0.573,1.044-1.015,1.451c-0.443,0.408-0.988,0.729-1.634,0.957c-0.648,0.23-1.378,0.345-2.194,0.345h-3.461V21.004z
			 M31.258,27.875c0.758,0,1.37-0.2,1.831-0.598c0.461-0.399,0.692-0.967,0.692-1.706v-0.025c0-0.729-0.231-1.294-0.692-1.697
			c-0.46-0.405-1.072-0.606-1.831-0.606h-1.029v4.632H31.258L31.258,27.875z"/>
		<path fill="#92221D" d="M40.806,20.939h2.434l3.881,9.174h-2.71l-0.663-1.626h-3.515l-0.65,1.626h-2.653L40.806,20.939z
			 M43.02,26.534l-1.014-2.589l-1.027,2.589H43.02z"/>
		<path fill="#92221D" d="M48.004,21.004h2.524v6.897h4.413v2.212h-6.938V21.004z"/>
		<path fill="#92221D" d="M60.668,30.296c-0.711,0-1.371-0.115-1.973-0.344c-0.604-0.231-1.125-0.554-1.568-0.97
			c-0.443-0.418-0.789-0.913-1.043-1.49c-0.248-0.577-0.373-1.212-0.373-1.908v-0.026c0-0.659,0.119-1.277,0.369-1.854
			c0.244-0.577,0.582-1.079,1.016-1.51c0.43-0.429,0.947-0.764,1.549-1.007c0.602-0.244,1.254-0.364,1.957-0.364
			c0.805,0,1.504,0.116,2.09,0.35c0.586,0.235,1.121,0.561,1.605,0.976l-1.484,1.783c-0.328-0.278-0.664-0.491-1.008-0.637
			c-0.344-0.148-0.74-0.222-1.189-0.222c-0.332,0-0.637,0.064-0.916,0.196c-0.285,0.129-0.529,0.308-0.736,0.534
			c-0.211,0.224-0.373,0.489-0.498,0.792c-0.119,0.304-0.18,0.631-0.18,0.978V25.6c0,0.364,0.061,0.702,0.184,1.014
			s0.293,0.579,0.514,0.801c0.225,0.219,0.484,0.394,0.785,0.519c0.301,0.126,0.633,0.189,1,0.189c0.592,0,1.078-0.125,1.461-0.377
			V26.64h-1.797v-1.848h4.191v4.098c-0.486,0.401-1.059,0.734-1.719,1.003C62.246,30.163,61.498,30.296,60.668,30.296z"/>
		<path fill="#92221D" d="M70.609,30.296c-0.705,0-1.354-0.125-1.953-0.371c-0.598-0.248-1.113-0.583-1.549-1.01
			c-0.432-0.424-0.771-0.923-1.02-1.496c-0.248-0.57-0.373-1.182-0.373-1.834v-0.026c0-0.65,0.125-1.264,0.373-1.841
			c0.248-0.577,0.592-1.081,1.033-1.51c0.443-0.428,0.963-0.767,1.561-1.014c0.6-0.248,1.25-0.373,1.953-0.373
			s1.355,0.125,1.953,0.373c0.6,0.245,1.113,0.583,1.547,1.007c0.434,0.427,0.775,0.924,1.021,1.497
			c0.248,0.573,0.371,1.185,0.371,1.834v0.026c0,0.65-0.123,1.264-0.371,1.841c-0.246,0.577-0.592,1.081-1.033,1.51
			c-0.443,0.43-0.965,0.768-1.563,1.016C71.961,30.173,71.311,30.296,70.609,30.296z M70.629,28.018
			c0.348,0,0.666-0.064,0.951-0.193c0.289-0.132,0.533-0.306,0.732-0.528c0.197-0.222,0.355-0.48,0.469-0.775
			c0.113-0.296,0.17-0.607,0.17-0.937v-0.026c0-0.33-0.057-0.642-0.17-0.937c-0.113-0.295-0.275-0.556-0.482-0.782
			c-0.209-0.224-0.455-0.405-0.744-0.538c-0.287-0.136-0.604-0.203-0.951-0.203c-0.35,0-0.664,0.065-0.949,0.196
			c-0.281,0.129-0.525,0.306-0.729,0.525c-0.205,0.222-0.361,0.48-0.469,0.775c-0.111,0.295-0.162,0.607-0.162,0.937v0.026
			c0,0.33,0.057,0.642,0.166,0.937c0.115,0.297,0.273,0.555,0.479,0.782c0.205,0.226,0.449,0.406,0.738,0.54
			C69.963,27.951,70.279,28.018,70.629,28.018z"/>
	</g>
	<g>
		<path fill="#6BA752" d="M98.176,16.202c-0.221-0.427-0.748-0.597-1.178-0.375c-8.621,4.456-14.031,6.112-16.078,4.919
			c-1.174-0.683-1.246-2.475-1.32-4.37c-0.09-2.338-0.207-5.248-3.059-5.923c-2.027-0.48-3.873,0.083-5.461,1.087
			c0.439-0.612,0.818-1.143,1.088-1.548c0.373-0.555,0.879-1.317,0.227-1.887c-0.635-0.551-1.318,0.026-1.77,0.405
			c-0.41,0.347-1.01,0.9-1.838,1.688c-6.189,5.909-11.389,7.33-12.561,6.469c-0.02-0.016-0.031-0.024-0.037-0.093
			c-0.07-0.803,1.316-2.803,2.641-4.197c0.32-0.337,0.32-0.865,0.002-1.204c-0.318-0.338-0.846-0.366-1.199-0.066
			c-6.328,5.376-11.244,5.506-11.335,5.508c-0.482,0-0.869,0.392-0.869,0.872c0,0.482,0.389,0.874,0.871,0.874
			c0.179,0,3.554-0.041,8.364-2.948c-0.166,0.46-0.25,0.908-0.215,1.313c0.049,0.56,0.305,1.025,0.742,1.346
			c1.875,1.38,6.592,0.217,12.207-4.322c-0.895,1.341-1.691,2.679-2.07,3.704c-0.289,0.796-0.545,1.483,0.189,1.854
			c0.727,0.364,1.121-0.233,1.537-0.868c1.191-1.805,4.82-7.3,9.084-6.288c1.406,0.331,1.609,1.624,1.715,4.291
			c0.086,2.177,0.184,4.645,2.186,5.812c0.684,0.396,1.543,0.599,2.596,0.599c3.135,0,8.006-1.774,15.166-5.476
			C98.23,17.159,98.398,16.633,98.176,16.202z"/>
		<path fill="#6BA752" d="M59.73,11.017c0.248,0,0.496-0.104,0.67-0.311c0.07-0.085,1.762-2.119,3.098-5.758
			c0.164-0.453-0.068-0.956-0.521-1.12c-0.453-0.168-0.955,0.064-1.121,0.519c-1.217,3.318-2.771,5.205-2.795,5.235
			c-0.309,0.37-0.262,0.919,0.107,1.231C59.332,10.95,59.531,11.017,59.73,11.017z"/>
	</g>
</g>
</svg>
